<svg width="32" height="32" viewBox="0 0 32 32" fill="none" xmlns="http://www.w3.org/2000/svg">
<path opacity="0.4" d="M15.9984 29.3311C14.9731 29.3311 13.9491 28.9418 13.1664 28.1644L12.1931 27.1911C11.8157 26.8151 11.3104 26.6071 10.7744 26.6058H9.40503C7.19169 26.6058 5.39036 24.8044 5.39036 22.5911V21.2204C5.38903 20.6858 5.18103 20.1804 4.80369 19.8004L3.84636 18.8444C2.27836 17.2858 2.27169 14.7378 3.83169 13.1684L4.80503 12.1938C5.18103 11.8164 5.38903 11.3111 5.39036 10.7751V9.40711C5.39036 7.19244 7.19169 5.39111 9.40503 5.39111H10.7757C11.3104 5.39111 11.8144 5.18311 12.1944 4.80311L13.1531 3.84711C14.7117 2.27911 17.2584 2.27111 18.8291 3.83244L19.8024 4.80577C20.1811 5.18311 20.6851 5.39111 21.2197 5.39111H22.5904C24.8037 5.39111 26.6051 7.19244 26.6051 9.40711V10.7764C26.6064 11.3111 26.8144 11.8164 27.1917 12.1964L28.1491 13.1538C28.9077 13.9084 29.3277 14.9138 29.3317 15.9871C29.3344 17.0538 28.9237 18.0578 28.1757 18.8164C28.1624 18.8298 28.1504 18.8444 28.1371 18.8564L27.1904 19.8031C26.8144 20.1804 26.6064 20.6858 26.6051 21.2218V22.5911C26.6051 24.8044 24.8037 26.6058 22.5904 26.6058H21.2197C20.6851 26.6071 20.1797 26.8151 19.8011 27.1924L18.8424 28.1498C18.0611 28.9364 17.0291 29.3311 15.9984 29.3311Z" fill="#393939"/>
<path fill-rule="evenodd" clip-rule="evenodd" d="M13.3903 13.4013C13.1703 13.6213 12.885 13.74 12.569 13.74C12.273 13.74 11.9823 13.6187 11.749 13.4C11.5276 13.18 11.4023 12.8787 11.4023 12.5733C11.4023 12.2827 11.525 11.984 11.741 11.7533C11.8596 11.6333 12.001 11.5427 12.1423 11.4947C12.545 11.3107 13.0796 11.4187 13.397 11.752C13.5103 11.8653 13.597 11.9893 13.6543 12.1187C13.717 12.2573 13.749 12.4147 13.749 12.5733C13.749 12.8907 13.6223 13.1853 13.3903 13.4013ZM20.2539 11.7465C19.7992 11.2932 19.0592 11.2932 18.6046 11.7465L11.7512 18.5999C11.2966 19.0545 11.2966 19.7945 11.7512 20.2505C11.9726 20.4705 12.2646 20.5919 12.5766 20.5919C12.8886 20.5919 13.1806 20.4705 13.4006 20.2505L20.2539 13.3972C20.7086 12.9412 20.7086 12.2025 20.2539 11.7465ZM19.8743 18.352C19.4423 18.1707 18.9303 18.2693 18.589 18.6107C18.5183 18.6933 18.4183 18.8213 18.3503 18.972C18.2783 19.1347 18.269 19.3093 18.269 19.4267C18.269 19.544 18.2783 19.7173 18.3503 19.88C18.417 20.0293 18.497 20.1507 18.6023 20.256C18.8436 20.48 19.1236 20.5933 19.4356 20.5933C19.7316 20.5933 20.0223 20.4733 20.261 20.2507C20.473 20.0387 20.589 19.7453 20.589 19.4267C20.589 19.1067 20.473 18.8147 20.2596 18.6013C20.1423 18.4853 20.001 18.3947 19.8743 18.352Z" fill="#68B96A"/>
</svg>
