<svg width="182" height="71" viewBox="0 0 182 71" fill="none" xmlns="http://www.w3.org/2000/svg">
<path d="M59.4694 0L23.4004 35.1L59.4694 70.2L72.0004 58.0056L48.4624 35.1L72.0004 12.1944L59.4694 0Z" fill="#07A14F"/>
<path d="M12.4049 0L0 12.0296L23.7902 35.1L0 58.1704L12.4049 70.2L48.6 35.1L36.7049 23.5648L12.4049 0Z" fill="#68B96A"/>
<path d="M95.48 34.6C97.1067 34.9467 98.4133 35.76 99.4 37.04C100.387 38.2933 100.88 39.7333 100.88 41.36C100.88 43.7067 100.053 45.5733 98.4 46.96C96.7733 48.32 94.4933 49 91.56 49H78.48V20.92H91.12C93.9733 20.92 96.2 21.5733 97.8 22.88C99.4267 24.1867 100.24 25.96 100.24 28.2C100.24 29.8533 99.8 31.2267 98.92 32.32C98.0667 33.4133 96.92 34.1733 95.48 34.6ZM85.32 32.28H89.8C90.92 32.28 91.7733 32.04 92.36 31.56C92.9733 31.0533 93.28 30.32 93.28 29.36C93.28 28.4 92.9733 27.6667 92.36 27.16C91.7733 26.6533 90.92 26.4 89.8 26.4H85.32V32.28ZM90.36 43.48C91.5067 43.48 92.3867 43.2267 93 42.72C93.64 42.1867 93.96 41.4267 93.96 40.44C93.96 39.4533 93.6267 38.68 92.96 38.12C92.32 37.56 91.4267 37.28 90.28 37.28H85.32V43.48H90.36ZM103.487 37.8C103.487 35.5067 103.914 33.4933 104.767 31.76C105.647 30.0267 106.834 28.6933 108.327 27.76C109.821 26.8267 111.487 26.36 113.327 26.36C114.901 26.36 116.274 26.68 117.447 27.32C118.647 27.96 119.567 28.8 120.207 29.84V26.68H127.047V49H120.207V45.84C119.541 46.88 118.607 47.72 117.407 48.36C116.234 49 114.861 49.32 113.287 49.32C111.474 49.32 109.821 48.8533 108.327 47.92C106.834 46.96 105.647 45.6133 104.767 43.88C103.914 42.12 103.487 40.0933 103.487 37.8ZM120.207 37.84C120.207 36.1333 119.727 34.7867 118.767 33.8C117.834 32.8133 116.687 32.32 115.327 32.32C113.967 32.32 112.807 32.8133 111.847 33.8C110.914 34.76 110.447 36.0933 110.447 37.8C110.447 39.5067 110.914 40.8667 111.847 41.88C112.807 42.8667 113.967 43.36 115.327 43.36C116.687 43.36 117.834 42.8667 118.767 41.88C119.727 40.8933 120.207 39.5467 120.207 37.84ZM145.596 26.44C148.209 26.44 150.289 27.2933 151.836 29C153.409 30.68 154.196 33 154.196 35.96V49H147.396V36.88C147.396 35.3867 147.009 34.2267 146.236 33.4C145.462 32.5733 144.422 32.16 143.116 32.16C141.809 32.16 140.769 32.5733 139.996 33.4C139.222 34.2267 138.836 35.3867 138.836 36.88V49H131.996V26.68H138.836V29.64C139.529 28.6533 140.462 27.88 141.636 27.32C142.809 26.7333 144.129 26.44 145.596 26.44ZM172.589 49L165.789 39.64V49H158.949V19.4H165.789V35.76L172.549 26.68H180.989L171.709 37.88L181.069 49H172.589Z" fill="white"/>
</svg>
