<svg width="28" height="32" viewBox="0 0 28 32" fill="none" xmlns="http://www.w3.org/2000/svg">
<path fill-rule="evenodd" clip-rule="evenodd" d="M13.5653 31.8619C13.7425 31.9544 13.9406 32.0015 14.1388 31.9999C14.3369 31.9984 14.5334 31.9497 14.7122 31.8556L20.4208 28.8039C22.0396 27.941 23.3073 26.9761 24.2963 25.8527C26.4467 23.4051 27.621 20.2813 27.6001 17.0602L27.5324 6.43517C27.526 5.21138 26.7222 4.11938 25.5334 3.72243L14.9135 0.159303C14.2741 -0.0572149 13.5734 -0.052508 12.9452 0.170286L2.36559 3.8605C1.18327 4.27314 0.393986 5.37298 0.40043 6.59834L0.468082 17.2155C0.489022 20.4413 1.70355 23.551 3.88938 25.9735C4.88807 27.0812 6.16703 28.032 7.80358 28.8808L13.5653 31.8619ZM12.0541 19.3743C12.2925 19.6034 12.6018 19.7163 12.911 19.7132C13.2203 19.7116 13.528 19.5955 13.7631 19.3633L20.0017 13.213C20.4704 12.7501 20.4656 12.0064 19.992 11.5498C19.5168 11.0933 18.7517 11.0964 18.283 11.5593L12.8933 16.8718L10.6865 14.7505C10.2114 14.294 9.44788 14.2987 8.97753 14.7615C8.5088 15.2244 8.51363 15.9681 8.98881 16.4246L12.0541 19.3743Z" fill="#68B96A"/>
</svg>
