<svg width="33" height="32" viewBox="0 0 33 32" fill="none" xmlns="http://www.w3.org/2000/svg">
<g clip-path="url(#clip0_126_91)">
<path d="M25.4692 19.7123C25.0548 20.1139 24.8644 20.6947 24.9588 21.2643L26.3812 29.1363C26.5012 29.8035 26.2196 30.4787 25.6612 30.8643C25.114 31.2643 24.386 31.3123 23.7892 30.9923L16.7028 27.2963C16.4564 27.1651 16.1828 27.0947 15.9028 27.0867H15.4692C15.3188 27.1091 15.1716 27.1571 15.0372 27.2307L7.94922 30.9443C7.59882 31.1203 7.20202 31.1827 6.81322 31.1203C5.86602 30.9411 5.23402 30.0387 5.38922 29.0867L6.81322 21.2147C6.90762 20.6403 6.71722 20.0563 6.30282 19.6483L0.525225 14.0483C0.0420247 13.5795 -0.125975 12.8755 0.0948247 12.2403C0.309225 11.6067 0.856425 11.1443 1.51722 11.0403L9.46922 9.88669C10.074 9.82429 10.6052 9.45629 10.8772 8.91229L14.3812 1.72829C14.4644 1.56829 14.5716 1.42109 14.7012 1.29629L14.8452 1.18429C14.9204 1.10109 15.0068 1.03229 15.1028 0.976293L15.2772 0.912293L15.5492 0.800293H16.2228C16.8244 0.862693 17.354 1.22269 17.6308 1.76029L21.1812 8.91229C21.4372 9.43549 21.9348 9.79869 22.5092 9.88669L30.4612 11.0403C31.1332 11.1363 31.6948 11.6003 31.9172 12.2403C32.1268 12.8819 31.946 13.5859 31.4532 14.0483L25.4692 19.7123Z" fill="#68B96A"/>
</g>
<defs>
<clipPath id="clip0_126_91">
<rect width="33" height="32" fill="white"/>
</clipPath>
</defs>
</svg>
